<svg width="48" height="48" viewBox="0 0 48 48" fill="none" xmlns="http://www.w3.org/2000/svg">
<path fill-rule="evenodd" clip-rule="evenodd" d="M46.9277 40.7111L26.1057 4.98144C25.9097 4.6105 25.613 4.29935 25.2481 4.08213C24.8831 3.86491 24.4638 3.75 24.0363 3.75C23.6089 3.75 23.1896 3.86491 22.8246 4.08213C22.4596 4.29935 22.1629 4.6105 21.967 4.98144L1.14498 40.7111C0.903376 41.0624 0.7671 41.4727 0.751507 41.8957C0.735913 42.3187 0.841621 42.7375 1.05672 43.105C1.27182 43.4724 1.58777 43.774 1.96896 43.9756C2.35016 44.1772 2.78146 44.2709 3.21425 44.2461H44.8585L46.0224 43.9936C46.2987 43.8489 46.5423 43.6512 46.7384 43.4124C46.9346 43.1735 47.0792 42.8984 47.1638 42.6037C47.2483 42.3089 47.2711 42.0005 47.2305 41.697C47.1899 41.3934 47.0869 41.101 46.9277 40.8372V40.7111ZM26.623 39.196H21.4497V34.1459H26.623V39.196ZM26.623 30.3582H21.4497V17.733H26.623V30.3582Z" fill="#313253"/>
</svg>
