<svg width="48" height="48" viewBox="0 0 48 48" fill="none" xmlns="http://www.w3.org/2000/svg">
<path d="M8.67692 23.4609H0L10.8369 34.2978L21.6738 23.4609H12.997C12.997 20.8889 13.7596 18.3746 15.1885 16.2361C16.6175 14.0976 18.6485 12.4308 21.0247 11.4465C23.401 10.4622 26.0156 10.2047 28.5383 10.7065C31.0608 11.2082 33.378 12.4467 35.1967 14.2655C37.0153 16.0842 38.2538 18.4013 38.7557 20.9239C39.2574 23.4464 38.9999 26.0612 38.0156 28.4375C37.0314 30.8137 35.3646 32.8447 33.2261 34.2735C31.0874 35.7025 28.5732 36.4652 26.0012 36.4652V40.8C29.4312 40.8029 32.785 39.7885 35.6383 37.8849C38.4917 35.9815 40.7164 33.2745 42.031 30.1065C43.3456 26.9384 43.691 23.4517 43.0237 20.0873C42.3564 16.7228 40.7062 13.632 38.2818 11.2056C35.8574 8.77916 32.7679 7.12631 29.4041 6.45608C26.0402 5.78585 22.5532 6.12836 19.3841 7.44028C16.2149 8.7522 13.506 10.9746 11.6001 13.8263C9.69422 16.6781 8.67692 20.031 8.67692 23.4609Z" fill="#313253"/>
</svg>
