<svg width="59" height="96" viewBox="0 0 59 96" fill="none" xmlns="http://www.w3.org/2000/svg">
<g filter="url(#filter0_d_47704_39730)">
<path fill-rule="evenodd" clip-rule="evenodd" d="M53 6L53 86L48 86L48 6L53 6Z" fill="url(#paint0_linear_47704_39730)"/>
</g>
<g opacity="0.96">
<g filter="url(#filter1_d_47704_39730)">
<path fill-rule="evenodd" clip-rule="evenodd" d="M11.5239 62H28.4763L30.4763 39.4118H9.52389L11.5239 62ZM27.6191 34.7059V32.8235C27.6191 32.0747 27.3181 31.3565 26.7823 30.827C26.2465 30.2975 25.5197 30 24.762 30H15.2382C14.4804 30 13.7537 30.2975 13.2179 30.827C12.6821 31.3565 12.381 32.0747 12.381 32.8235V34.7059H6.66675V37.5294H33.3334V34.7059H27.6191ZM24.762 34.7059H15.2382V33.7647C15.2382 33.5151 15.3385 33.2757 15.5171 33.0992C15.6957 32.9227 15.938 32.8235 16.1906 32.8235H23.8096C24.0622 32.8235 24.3044 32.9227 24.483 33.0992C24.6616 33.2757 24.762 33.5151 24.762 33.7647V34.7059Z" fill="url(#paint1_linear_47704_39730)"/>
</g>
</g>
<defs>
<filter id="filter0_d_47704_39730" x="38" y="0" width="21" height="96" filterUnits="userSpaceOnUse" color-interpolation-filters="sRGB">
<feFlood flood-opacity="0" result="BackgroundImageFix"/>
<feColorMatrix in="SourceAlpha" type="matrix" values="0 0 0 0 0 0 0 0 0 0 0 0 0 0 0 0 0 0 127 0" result="hardAlpha"/>
<feOffset dx="-2" dy="2"/>
<feGaussianBlur stdDeviation="4"/>
<feComposite in2="hardAlpha" operator="out"/>
<feColorMatrix type="matrix" values="0 0 0 0 0 0 0 0 0 0 0 0 0 0 0 0 0 0 1 0"/>
<feBlend mode="normal" in2="BackgroundImageFix" result="effect1_dropShadow_47704_39730"/>
<feBlend mode="normal" in="SourceGraphic" in2="effect1_dropShadow_47704_39730" result="shape"/>
</filter>
<filter id="filter1_d_47704_39730" x="1.66675" y="30" width="36.6667" height="42" filterUnits="userSpaceOnUse" color-interpolation-filters="sRGB">
<feFlood flood-opacity="0" result="BackgroundImageFix"/>
<feColorMatrix in="SourceAlpha" type="matrix" values="0 0 0 0 0 0 0 0 0 0 0 0 0 0 0 0 0 0 127 0" result="hardAlpha"/>
<feOffset dy="5"/>
<feGaussianBlur stdDeviation="2.5"/>
<feComposite in2="hardAlpha" operator="out"/>
<feColorMatrix type="matrix" values="0 0 0 0 0 0 0 0 0 0 0 0 0 0 0 0 0 0 0.6 0"/>
<feBlend mode="normal" in2="BackgroundImageFix" result="effect1_dropShadow_47704_39730"/>
<feBlend mode="normal" in="SourceGraphic" in2="effect1_dropShadow_47704_39730" result="shape"/>
</filter>
<linearGradient id="paint0_linear_47704_39730" x1="50.5" y1="6" x2="50.5" y2="86" gradientUnits="userSpaceOnUse">
<stop stop-color="#FC6B6B"/>
<stop offset="1" stop-color="#ED0C0C"/>
</linearGradient>
<linearGradient id="paint1_linear_47704_39730" x1="20.0001" y1="30" x2="20.0001" y2="62" gradientUnits="userSpaceOnUse">
<stop stop-color="#FC6B6B"/>
<stop offset="1" stop-color="#ED0C0C"/>
</linearGradient>
</defs>
</svg>
