<svg width="54" height="54" viewBox="0 0 54 54" fill="none" xmlns="http://www.w3.org/2000/svg">
<g filter="url(#filter0_d_25306_86027)">
<path d="M27 6.34497C21.5219 6.34497 16.2682 8.52112 12.3947 12.3947C8.52112 16.2682 6.34497 21.5219 6.34497 27C6.34497 31.0851 7.55637 35.0786 9.82597 38.4753C12.0956 41.872 15.3214 44.5194 19.0956 46.0827C22.8699 47.646 27.0229 48.0551 31.0296 47.2581C35.0362 46.4611 38.7166 44.4939 41.6053 41.6053C44.4939 38.7166 46.4611 35.0362 47.2581 31.0296C48.0551 27.0229 47.646 22.8699 46.0827 19.0956C44.5194 15.3214 41.872 12.0956 38.4753 9.82597C35.0786 7.55637 31.0851 6.34497 27 6.34497ZM29.295 38.475H24.705V24.705H29.295V38.475ZM29.295 20.115H24.705V15.525H29.295V20.115Z" fill="white"/>
</g>
<defs>
<filter id="filter0_d_25306_86027" x="3.41354" y="6.34497" width="47.1729" height="47.1729" filterUnits="userSpaceOnUse" color-interpolation-filters="sRGB">
<feFlood flood-opacity="0" result="BackgroundImageFix"/>
<feColorMatrix in="SourceAlpha" type="matrix" values="0 0 0 0 0 0 0 0 0 0 0 0 0 0 0 0 0 0 127 0" result="hardAlpha"/>
<feOffset dy="2.93143"/>
<feGaussianBlur stdDeviation="1.46571"/>
<feColorMatrix type="matrix" values="0 0 0 0 0 0 0 0 0 0 0 0 0 0 0 0 0 0 0.75 0"/>
<feBlend mode="normal" in2="BackgroundImageFix" result="effect1_dropShadow_25306_86027"/>
<feBlend mode="normal" in="SourceGraphic" in2="effect1_dropShadow_25306_86027" result="shape"/>
</filter>
</defs>
</svg>
